<svg width="74" height="74" viewBox="0 0 74 74" fill="none" xmlns="http://www.w3.org/2000/svg">
<path d="M26.7621 74V60.2614H47.2403V74H62.6731V0H11.3269V74H26.7621ZM47.2403 6.79802H55.8774V15.4352H47.2403V6.79802ZM47.2403 19.3541H55.8774V27.9936H47.2403V19.3541ZM47.2403 31.9126H55.8774V40.5474H47.2403V31.9126ZM47.2403 44.4664H55.8774V53.1082H47.2403V44.4664ZM32.6838 6.79802H41.3232V15.4352H32.6838V6.79802ZM32.6838 19.3541H41.3232V27.9936H32.6838V19.3541ZM32.6838 31.9126H41.3232V40.5474H32.6838V31.9126ZM32.6838 44.4664H41.3232V53.1082H32.6838V44.4664ZM18.1273 6.79802H26.7644V15.4352H18.1273V6.79802ZM18.1273 19.3541H26.7644V27.9936H18.1273V19.3541ZM18.1273 31.9126H26.7644V40.5474H18.1273V31.9126ZM18.1273 44.4664H26.7644V53.1082H18.1273V44.4664Z" fill="#4A81E8"/>
</svg>
