<svg width="155" height="148" viewBox="0 0 155 148" fill="none" xmlns="http://www.w3.org/2000/svg">
<path d="M78.1756 0.879996C85.6956 0.879996 92.3623 2.42666 98.1756 5.52C104.042 8.56 108.576 12.72 111.776 18C115.029 23.28 116.656 29.12 116.656 35.52C116.656 40.4267 115.802 44.64 114.096 48.16C112.442 51.6267 110.176 54.2667 107.296 56.08C104.469 57.84 101.322 58.72 97.8556 58.72C94.8156 58.72 92.229 58.1333 90.0956 56.96C87.9623 55.7867 86.3356 54.0533 85.2156 51.76C82.869 56.4 78.8156 58.72 73.0556 58.72C70.1223 58.72 67.349 57.92 64.7356 56.32C62.1756 54.6667 60.0956 52.32 58.4956 49.28C56.8956 46.24 56.0956 42.7467 56.0956 38.8C56.0956 34.8533 56.869 31.3867 58.4156 28.4C60.0156 25.36 62.0956 23.04 64.6556 21.44C67.269 19.7867 70.069 18.96 73.0556 18.96C77.269 18.96 80.549 20.2667 82.8956 22.88V19.68H98.2556V42.56C98.2556 45.4933 99.2956 46.96 101.376 46.96C102.656 46.96 103.642 46.1333 104.336 44.48C105.082 42.8267 105.456 39.92 105.456 35.76C105.456 30.96 104.309 26.6933 102.016 22.96C99.7756 19.2267 96.5756 16.32 92.4156 14.24C88.309 12.1067 83.5623 11.04 78.1756 11.04C72.789 11.04 68.0156 12.2133 63.8556 14.56C59.6956 16.8533 56.469 20.0533 54.1756 24.16C51.8823 28.2133 50.7356 32.7467 50.7356 37.76C50.7356 42.9333 51.8556 47.5733 54.0956 51.68C56.389 55.7333 59.589 58.9067 63.6956 61.2C67.8023 63.4933 72.5223 64.64 77.8556 64.64C83.4556 64.64 88.8423 63.4667 94.0156 61.12L97.3756 70.96C94.9756 72.1333 91.989 73.0667 88.4156 73.76C84.8956 74.4533 81.3756 74.8 77.8556 74.8C70.0156 74.8 63.0823 73.1733 57.0556 69.92C51.0823 66.72 46.469 62.32 43.2156 56.72C39.9623 51.0667 38.3356 44.7467 38.3356 37.76C38.3356 30.88 39.9623 24.64 43.2156 19.04C46.5223 13.44 51.189 9.01333 57.2156 5.76C63.2423 2.50666 70.229 0.879996 78.1756 0.879996ZM77.4556 46.16C79.1623 46.16 80.549 45.52 81.6156 44.24C82.6823 42.96 83.2156 41.1467 83.2156 38.8C83.2156 36.4533 82.6823 34.6667 81.6156 33.44C80.549 32.16 79.1623 31.52 77.4556 31.52C75.749 31.52 74.3623 32.16 73.2956 33.44C72.2823 34.6667 71.7756 36.4533 71.7756 38.8C71.7756 41.1467 72.2823 42.96 73.2956 44.24C74.3623 45.52 75.749 46.16 77.4556 46.16ZM15.0175 107.4V148H9.27546V112.446H0.111461V107.4H15.0175ZM42.7804 107.4H59.8904C64.1824 107.4 67.9911 108.251 71.3164 109.952C74.6418 111.653 77.2131 114.051 79.0304 117.144C80.8864 120.199 81.8144 123.717 81.8144 127.7C81.8144 131.683 80.8864 135.221 79.0304 138.314C77.2131 141.369 74.6418 143.747 71.3164 145.448C67.9911 147.149 64.1824 148 59.8904 148H42.7804V107.4ZM59.5424 142.954C62.8291 142.954 65.7098 142.316 68.1844 141.04C70.6978 139.764 72.6311 137.985 73.9844 135.704C75.3378 133.384 76.0144 130.716 76.0144 127.7C76.0144 124.684 75.3378 122.035 73.9844 119.754C72.6311 117.434 70.6978 115.636 68.1844 114.36C65.7098 113.084 62.8291 112.446 59.5424 112.446H48.5804V142.954H59.5424ZM98.194 112.446H84.274V107.4H117.856V112.446H103.936V148H98.194V112.446ZM147.937 148L135.757 131.238L123.751 148H117.081L132.335 127.178L118.009 107.4H124.621L135.989 123.002L147.241 107.4H153.563L139.237 127.004L154.607 148H147.937Z" fill="#4A81E8"/>
</svg>
