<svg width="145" height="74" viewBox="0 0 145 74" fill="none" xmlns="http://www.w3.org/2000/svg">
<path d="M76 0C65.2412 0 56.4883 8.75296 56.4883 19.5117C56.4883 30.2705 65.2412 39.0234 76 39.0234C86.7588 39.0234 95.5117 30.2705 95.5117 19.5117C95.5117 8.75296 86.7588 0 76 0Z" fill="#4A81E8"/>
<path d="M100.276 51.7704C94.9345 46.3464 87.8529 43.3594 80.3359 43.3594H71.6641C64.1473 43.3594 57.0655 46.3464 51.7237 51.7704C46.4079 57.1677 43.4805 64.2923 43.4805 71.832C43.4805 73.0293 44.4511 74 45.6484 74H106.352C107.549 74 108.52 73.0293 108.52 71.832C108.52 64.2923 105.592 57.1677 100.276 51.7704Z" fill="#4A81E8"/>
<path d="M28.5 6C20.2128 6 13.4707 12.7421 13.4707 21.0293C13.4707 29.3165 20.2128 36.0586 28.5 36.0586C36.7872 36.0586 43.5293 29.3165 43.5293 21.0293C43.5293 12.7421 36.7872 6 28.5 6Z" fill="#4A81E8"/>
<path d="M47.1993 45.8772C43.0847 41.6993 37.6299 39.3984 31.8398 39.3984H25.1602C19.3702 39.3984 13.9153 41.6993 9.80066 45.8772C5.70612 50.0346 3.45117 55.5224 3.45117 61.3301C3.45117 62.2523 4.19885 63 5.12109 63H51.8789C52.8011 63 53.5488 62.2523 53.5488 61.3301C53.5488 55.5224 51.2939 50.0346 47.1993 45.8772Z" fill="#4A81E8"/>
<path d="M116.5 6C108.213 6 101.471 12.7421 101.471 21.0293C101.471 29.3165 108.213 36.0586 116.5 36.0586C124.787 36.0586 131.529 29.3165 131.529 21.0293C131.529 12.7421 124.787 6 116.5 6Z" fill="#4A81E8"/>
<path d="M135.199 45.8772C131.085 41.6993 125.63 39.3984 119.84 39.3984H113.16C107.37 39.3984 101.915 41.6993 97.8007 45.8772C93.7061 50.0346 91.4512 55.5224 91.4512 61.3301C91.4512 62.2523 92.1989 63 93.1211 63H139.879C140.801 63 141.549 62.2523 141.549 61.3301C141.549 55.5224 139.294 50.0346 135.199 45.8772Z" fill="#4A81E8"/>
</svg>
