<svg width="81" height="81" viewBox="0 0 81 81" fill="none" xmlns="http://www.w3.org/2000/svg">
<path d="M59.4844 4.74609C55.089 4.74609 51.0593 6.13891 47.5073 8.88595C44.102 11.5196 41.8348 14.8739 40.5 17.3131C39.1652 14.8738 36.898 11.5196 33.4927 8.88595C29.9407 6.13891 25.911 4.74609 21.5156 4.74609C9.24982 4.74609 0 14.7789 0 28.0833C0 42.4567 11.5398 52.2907 29.0096 67.1781C31.9762 69.7064 35.3388 72.572 38.8338 75.6284C39.2945 76.0318 39.8862 76.2539 40.5 76.2539C41.1138 76.2539 41.7055 76.0318 42.1662 75.6285C45.6615 72.5717 49.024 69.7062 51.9924 67.1765C69.4602 52.2907 81 42.4567 81 28.0833C81 14.7789 71.7502 4.74609 59.4844 4.74609Z" fill="#4A81E8"/>
</svg>
