<svg width="68" height="68" viewBox="0 0 68 68" fill="none" xmlns="http://www.w3.org/2000/svg">
<g clip-path="url(#clip0)">
<path d="M66.606 0.00862038C53.3318 -0.22938 38.1933 6.70945 28.611 17.4733C19.4537 17.6461 10.5372 21.4003 3.97233 27.9651C3.58983 28.342 3.45383 28.9058 3.621 29.4158C3.791 29.9286 4.233 30.2998 4.76566 30.3763L15.6853 31.9403L14.3367 33.4505C13.8352 34.0115 13.8607 34.8643 14.3933 35.397L32.6032 53.6068C32.878 53.8816 33.2407 54.0205 33.6062 54.0205C33.9433 54.0205 34.2805 53.9014 34.5497 53.6606L36.0598 52.3119L37.6238 63.2316C37.7003 63.7643 38.1197 64.1553 38.6268 64.3253C38.7572 64.3678 38.8932 64.3876 39.032 64.3876C39.4343 64.3876 39.8452 64.2119 40.1285 63.9314C46.6027 57.4573 50.3568 48.5408 50.5297 39.3835C61.3048 29.7813 68.3003 14.6485 67.9915 1.39129C67.9717 0.63762 67.3625 0.0284537 66.606 0.00862038ZM53.55 24.466C52.1702 25.8458 50.3568 26.5371 48.5407 26.5371C46.7245 26.5371 44.9112 25.8458 43.5313 24.466C40.7717 21.7035 40.7717 17.2098 43.5313 14.4473C46.2938 11.6848 50.7875 11.6848 53.55 14.4473C56.3125 17.2098 56.3125 21.7063 53.55 24.466Z" fill="#4A81E8"/>
<path d="M7.71798 47.8975C4.68631 50.9291 0.524146 64.6255 0.0594795 66.1753C-0.0906872 66.674 0.0481462 67.2151 0.413646 67.5834C0.685646 67.8554 1.04548 67.9999 1.41665 67.9999C1.55265 67.9999 1.68865 67.9801 1.82465 67.9404C3.37448 67.4758 17.0708 63.3136 20.1025 60.2819C23.5167 56.8678 23.5167 51.3116 20.1025 47.8975C16.6855 44.4833 11.1321 44.4861 7.71798 47.8975Z" fill="#4A81E8"/>
</g>
<defs>
<clipPath id="clip0">
<rect width="68" height="68" fill="white"/>
</clipPath>
</defs>
</svg>
