<svg width="74" height="74" viewBox="0 0 74 74" fill="none" xmlns="http://www.w3.org/2000/svg">
<path d="M37 0C26.2412 0 17.4883 8.75296 17.4883 19.5117C17.4883 30.2705 26.2412 39.0234 37 39.0234C47.7588 39.0234 56.5117 30.2705 56.5117 19.5117C56.5117 8.75296 47.7588 0 37 0Z" fill="#4A81E8"/>
<path d="M61.2763 51.7704C55.9345 46.3464 48.8529 43.3594 41.3359 43.3594H32.6641C25.1473 43.3594 18.0655 46.3464 12.7237 51.7704C7.40795 57.1677 4.48047 64.2923 4.48047 71.832C4.48047 73.0293 5.45114 74 6.64844 74H67.3516C68.5489 74 69.5195 73.0293 69.5195 71.832C69.5195 64.2923 66.5921 57.1677 61.2763 51.7704Z" fill="#4A81E8"/>
</svg>
